<?xml version="1.0" encoding="UTF-8"?>
<svg xmlns="http://www.w3.org/2000/svg" xmlns:xlink="http://www.w3.org/1999/xlink" version="1.1" id="Layer_1" x="0px" y="0px" width="100%" viewBox="0 0 500 500" enable-background="new 0 0 500 500" xml:space="preserve" style="background: transparent;">

<defs>
  <linearGradient id="logoGradient" x1="0%" y1="0%" x2="100%" y2="100%">
    <stop offset="0%" stop-color="hsl(217 93% 47%)" />
    <stop offset="100%" stop-color="hsl(264 55% 42%)" />
  </linearGradient>
</defs>
<path fill="url(#logoGradient)" opacity="1.000000" stroke="none" d=" M366.626312,199.070618   C369.075348,201.858170 371.403534,204.764923 374.004639,207.402542   C377.131073,210.572876 380.648041,213.367462 383.669403,216.627365   C384.865387,217.917755 385.790985,220.016830 385.806305,221.756775   C385.955078,238.684555 385.978210,255.615509 385.748352,272.541656   C385.722076,274.478333 384.334534,276.799652 382.880188,278.235809   C379.018433,282.049225 374.774658,285.475800 370.333984,288.799500   C370.634003,282.141510 371.691620,275.750092 371.846497,269.336914   C372.166901,256.066833 372.148468,242.782639 371.910522,229.510681   C371.869049,227.197266 370.643188,224.322861 368.985626,222.719101   C360.777252,214.777252 352.350891,207.049088 343.766998,199.512512   C340.148773,196.335739 335.954071,193.815582 332.021423,190.996948   C329.268127,187.695099 326.104401,184.648605 323.855042,181.033264   C320.229889,175.206589 315.358215,173.454849 308.772034,174.177307   C303.829834,174.719421 298.107971,172.870331 293.980255,174.780548   C289.939240,176.650635 287.476288,181.930710 283.964417,186.141220   C273.973206,177.430511 264.020447,168.753296 253.656799,159.717865   C243.550873,168.575989 233.620361,177.280365 223.640366,186.028107   C221.315598,183.324265 218.709961,181.220291 217.353897,178.494644   C215.425552,174.618729 212.603210,174.074402 208.849625,174.222137   C203.358887,174.438217 197.841049,174.075027 192.361404,174.403427   C190.486862,174.515793 188.196762,175.518280 186.954880,176.890747   C183.282089,180.949738 180.037857,185.396530 175.982483,189.831604   C174.759033,190.279663 174.089523,190.486877 173.612198,190.910568   C161.327805,201.814468 149.028275,212.702103 136.857117,223.731323   C135.791656,224.696838 135.037659,226.630569 135.072723,228.092163   C135.581375,249.297562 132.973618,270.702667 138.933441,291.574005   C133.463196,286.824677 127.886742,282.188568 122.608383,277.234802   C121.493248,276.188232 121.020142,273.981018 121.012192,272.304962   C120.931801,255.362289 120.930717,238.417801 121.157227,221.477158   C121.181671,219.648346 122.395653,217.467056 123.722237,216.088669   C129.085327,210.516159 134.708527,205.194016 140.668884,199.412888   C145.435257,195.455887 149.880753,191.991440 154.079422,188.250031   C164.337891,179.108765 174.544891,169.907211 184.633942,160.579926   C187.636124,157.804413 191.662445,154.918121 192.580902,151.394760   C193.936600,146.194016 192.931030,140.377747 192.931030,134.074615   C191.583725,135.142456 190.936569,135.604202 190.346924,136.130402   C180.934769,144.529877 171.471832,152.873688 162.141922,161.363632   C154.673950,168.159271 147.369659,175.134796 139.992722,182.030472   C133.965805,187.430573 127.938889,192.830673 121.084618,198.972076   C121.084618,192.242981 120.765106,186.336472 121.263680,180.499847   C121.430664,178.544952 123.384071,176.430801 125.032097,174.963654   C138.145065,163.289902 151.427063,151.806213 164.563843,140.158951   C173.857697,131.918900 182.881180,123.368881 192.314270,115.294769   C194.460953,113.457329 197.795715,112.085030 200.591858,112.070435   C232.369949,111.904526 264.160797,112.541687 295.922852,111.830933   C306.976776,111.583588 315.125214,114.074638 323.290497,121.946526   C342.493896,140.459885 362.880493,157.742554 382.597931,175.731873   C384.376465,177.354507 385.435272,180.425613 385.675812,182.934540   C386.150116,187.880905 385.815613,192.904800 385.815613,199.361557   C379.250214,193.230881 373.447235,187.812119 367.241577,181.932098   C349.817047,165.821991 332.795258,150.173126 315.079651,133.886429   C315.079651,140.790665 315.013397,146.779724 315.163269,152.763367   C315.182037,153.513733 316.274628,154.307617 316.981659,154.959961   C331.603821,168.451035 346.216736,181.952438 360.912781,195.362671   C362.567383,196.872513 364.709991,197.847565 366.626312,199.070618  z"/>
<path fill="url(#logoGradient)" opacity="1.000000" stroke="none" d=" M329.346191,377.335999   C304.092438,399.589691 279.070648,421.573456 253.739166,443.829315   C241.764267,433.407898 229.774338,422.979675 217.791336,412.543518   C197.406509,394.790131 177.009171,377.051117 156.650482,359.267822   C145.407135,349.446808 134.215057,339.566681 123.056007,329.650024   C122.128281,328.825592 121.041176,327.526703 121.024368,326.432922   C120.868881,316.317078 120.932564,306.197876 120.932564,295.017822   C165.502914,333.848969 209.316254,372.020599 253.503052,410.517578   C297.379028,372.029907 341.104584,333.674164 385.900421,294.379608   C385.900421,301.407440 385.242493,307.348938 386.042236,313.087280   C387.543518,323.859711 383.193695,330.591187 374.689362,337.126190   C361.289490,347.423096 349.179260,359.399200 336.535522,370.678375   C334.186401,372.773987 331.895782,374.935211 329.346191,377.335999  z"/>
<path fill="url(#logoGradient)" opacity="1.000000" stroke="none" d=" M289.968414,281.071106   C287.749695,285.092926 284.964478,285.725861 281.026733,284.274597   C276.048035,282.439667 270.939453,280.793854 265.749664,279.745697   C261.441681,278.875610 259.166321,277.287354 260.178070,272.583130   C260.441772,271.357117 260.217804,270.026215 260.217804,268.373901   C266.787933,268.597961 272.238312,267.279755 274.822266,260.848785   C275.188934,259.936279 275.760284,258.997009 275.767975,258.066223   C275.840393,249.275909 275.811035,240.484726 275.811035,231.391418   C261.015015,231.391418 246.591919,231.391418 231.787445,231.391418   C231.787445,240.672180 231.176727,249.955841 231.998962,259.110809   C232.561142,265.370239 237.395432,267.791382 246.844559,268.461792   C246.844559,271.622589 246.844559,274.825958 246.841187,278.033936   C239.218719,280.321564 231.610748,282.643341 223.967163,284.841278   C222.954849,285.132355 221.209213,285.245972 220.739899,284.673645   C217.282578,280.457581 213.105530,277.187134 212.433624,270.644958   C210.345642,250.314957 216.382385,231.995438 224.273102,213.895248   C226.258987,209.339844 227.449799,204.415192 229.667679,199.992050   C231.001862,197.331253 233.415802,195.089890 235.693146,193.049118   C240.620178,188.633957 245.802429,184.504959 250.815750,180.184036   C252.774475,178.495834 254.547272,178.488724 256.479523,180.142685   C263.156555,185.858200 269.872559,191.528366 276.523590,197.273819   C277.236542,197.889679 277.787811,198.821045 278.133362,199.714615   C283.582611,213.805450 289.012421,227.904007 294.356628,242.034882   C294.865723,243.381042 294.921295,244.953186 294.935364,246.422836   C295.003967,253.588303 294.664124,260.774658 295.107391,267.913940   C295.432800,273.155396 294.082306,277.343475 289.968414,281.071106  z"/>
<path fill="url(#logoGradient)" opacity="1.000000" stroke="none" d=" M206.854614,352.146851   C198.895599,345.146149 190.926163,338.657562 183.677032,331.445007   C180.864822,328.647003 179.321609,324.350739 177.836060,320.492218   C175.349457,314.033539 173.372971,307.378479 170.830215,299.751556   C172.563599,300.460266 173.910431,300.663055 174.779007,301.416931   C196.616745,320.370270 218.404388,339.381317 240.198715,358.384674   C240.575119,358.712860 240.895935,359.109924 241.291916,359.409790   C245.477921,362.579681 249.614319,368.095398 253.884750,368.203369   C257.804932,368.302460 262.003845,362.719543 265.850586,359.376099   C277.265778,349.454620 288.546234,339.378326 299.919922,329.408813   C311.967285,318.848785 324.061249,308.341919 336.875854,297.165558   C336.364227,299.604187 336.188354,301.481720 335.572205,303.201508   C332.714264,311.178680 329.976562,319.215302 326.660675,327.002808   C325.563873,329.578766 323.068756,331.704620 320.866089,333.641876   C299.400879,352.520630 277.819336,371.267303 256.391479,390.188080   C253.270050,392.944275 251.657532,390.722260 249.715530,389.045959   C236.920151,378.001892 224.155746,366.921936 211.372467,355.863831   C209.987701,354.665924 208.546814,353.532837 206.854614,352.146851  z"/>
<path fill="url(#logoGradient)" opacity="1.000000" stroke="none" d=" M324.638824,280.302704   C319.800964,285.009949 315.062256,289.824738 310.101868,294.399048   C302.792969,301.139130 295.326080,307.707855 286.900635,313.674622   C288.601044,310.253754 290.068146,306.690216 292.053589,303.443665   C295.506287,297.797882 298.944489,292.084778 303.022614,286.898254   C306.337463,282.682495 307.585144,278.355194 307.368774,273.110779   C307.067169,265.800079 306.890533,258.438019 307.412750,251.151886   C307.993896,243.043518 305.661560,235.780502 302.709412,228.501526   C299.054932,219.490906 295.569366,210.411774 291.694946,200.558929   C302.332428,202.062378 309.578339,199.115036 311.678070,186.977890   C315.621246,192.087906 318.772125,196.171143 321.684570,200.748138   C318.480621,204.151245 315.690582,207.273651 312.496063,209.904984   C309.765564,212.154099 310.018036,214.168869 311.762726,216.722305   C314.852020,221.243683 318.029358,225.724426 320.786591,230.445999   C322.500641,233.381119 324.564178,236.699051 324.651703,239.894974   C325.020142,253.354019 324.704285,266.831787 324.638824,280.302704  z"/>
<path fill="url(#logoGradient)" opacity="1.000000" stroke="none" d=" M185.967773,200.454971   C188.671692,196.282639 191.375610,192.110306 194.983185,186.543564   C197.816040,198.823944 204.787201,202.699509 215.841614,200.265396   C213.692566,206.053604 211.883179,211.166611 209.899857,216.211243   C207.100586,223.331207 204.093445,230.370163 201.351379,237.511414   C200.598434,239.472321 200.148499,241.669754 200.117630,243.766876   C199.985229,252.761551 200.584869,261.799255 199.902084,270.743744   C199.312164,278.471954 202.200012,284.303467 206.468063,290.299316   C211.624374,297.542969 215.931946,305.390808 220.606857,312.977142   C220.145813,313.390900 219.684753,313.804657 219.223709,314.218414   C206.665894,302.967224 194.108078,291.716034 181.766220,280.086121   C182.307724,278.023254 182.905563,276.340546 182.914459,274.654755   C182.970428,264.022644 182.549591,253.374054 183.034790,242.765106   C183.228455,238.530472 184.764343,234.098679 186.700089,230.267349   C189.149658,225.419052 192.536163,221.024902 195.702438,216.565414   C197.512207,214.016464 197.143326,212.350311 194.855057,210.220215   C191.644547,207.231659 188.907394,203.734558 185.967773,200.454971  z"/>
<path fill="url(#logoGradient)" opacity="1.000000" stroke="none" d=" M167.907379,118.993988   C167.802170,114.733467 167.696960,110.472946 167.741989,105.360062   C167.725159,96.686996 161.957794,90.978767 154.213943,90.969658   C133.902176,90.945763 133.877640,90.922760 121.151207,104.499580   C120.124832,105.594543 119.188858,107.295746 119.170120,108.727791   C119.061218,117.048477 119.239525,125.372925 119.215630,134.173859   C118.650589,138.493317 118.190636,142.335007 117.730690,146.176712   C115.028297,143.750381 112.440613,141.178940 109.597115,138.931107   C105.136299,135.404755 105.249550,130.967270 105.671852,125.813545   C106.295296,118.205154 105.785362,110.508415 105.933586,102.852692   C105.962593,101.354492 106.351059,99.438591 107.322281,98.452950   C113.152542,92.536133 119.010605,86.614426 125.282188,81.182564   C127.429367,79.322876 130.761444,78.047676 133.612213,77.927269   C143.090164,77.526962 152.602448,77.572128 162.085510,77.904510   C164.627960,77.993629 167.132217,79.668938 169.610489,80.718803   C170.179794,80.959976 170.498306,81.743233 171.052643,82.077080   C181.113907,88.136513 180.336151,97.921097 179.740097,107.578209   C179.670181,108.710793 178.880539,110.029526 178.025314,110.841446   C175.014404,113.699951 171.829422,116.375099 168.361542,119.060150   C168.012604,119.000496 167.907394,118.993988 167.907379,118.993988  z"/>
<path fill="url(#logoGradient)" opacity="1.000000" stroke="none" d=" M339.980072,119.245636   C336.614319,116.349251 333.137390,113.567673 329.953644,110.483398   C329.050507,109.608505 328.673187,107.863068 328.623077,106.496040   C328.464996,102.179634 328.413971,97.843941 328.664276,93.535622   C328.762665,91.841888 329.357330,89.840141 330.440887,88.606720   C333.164703,85.506195 336.130585,82.559120 339.336334,79.967171   C340.848419,78.744576 343.121979,77.915543 345.071045,77.874092   C354.875610,77.665581 364.691864,77.953949 374.493317,77.681870   C378.139099,77.580666 380.872314,78.669800 383.358673,81.120033   C389.019287,86.698456 394.825256,92.132988 400.362427,97.829903   C401.466003,98.965317 402.138611,101.006042 402.151306,102.636024   C402.231598,112.911385 402.478546,123.219147 401.715515,133.444946   C401.511047,136.185150 398.105560,138.785934 395.937347,141.246109   C394.425110,142.961960 392.517120,144.329025 390.166504,145.699707   C389.275269,141.618011 389.003448,137.688492 388.819275,133.312561   C388.987854,129.221695 389.122070,125.577530 389.140533,121.932785   C389.224762,105.307297 389.297882,105.214767 377.112946,94.037491   C375.262360,92.339951 372.254913,91.299934 369.694519,91.103531   C364.089142,90.673553 358.427124,90.957062 352.788513,90.991997   C345.537048,91.036919 339.597168,98.128021 340.665741,105.421265   C340.637878,109.642113 340.610016,113.862968 340.325623,118.497147   C340.069092,118.910484 339.980072,119.245636 339.980072,119.245636  z"/>
<path fill="url(#logoGradient)" opacity="1.000000" stroke="none" d=" M185.643921,200.618225   C188.907394,203.734558 191.644547,207.231659 194.855057,210.220215   C197.143326,212.350311 197.512207,214.016464 195.702438,216.565414   C192.536163,221.024902 189.149658,225.419052 186.700089,230.267349   C184.764343,234.098679 183.228455,238.530472 183.034790,242.765106   C182.549591,253.374054 182.970428,264.022644 182.914459,274.654755   C182.905563,276.340546 182.307724,278.023254 181.601074,279.805359   C175.095642,274.049866 168.857391,268.308075 162.929276,262.262177   C161.495682,260.800110 160.436050,258.368652 160.325378,256.322327   C159.957230,249.514496 160.287903,242.670792 159.989059,235.856689   C159.724091,229.814621 164.604919,226.840332 167.498230,222.847366   C173.038254,215.201797 179.336472,208.105621 185.643921,200.618225  z"/>
<path fill="url(#logoGradient)" opacity="1.000000" stroke="none" d=" M325.011078,280.223633   C324.704285,266.831787 325.020142,253.354019 324.651703,239.894974   C324.564178,236.699051 322.500641,233.381119 320.786591,230.445999   C318.029358,225.724426 314.852020,221.243683 311.762726,216.722305   C310.018036,214.168869 309.765564,212.154099 312.496063,209.904984   C315.690582,207.273651 318.480621,204.151245 321.744873,201.084610   C329.686584,210.532776 337.402191,220.082230 344.898712,229.800690   C346.099365,231.357224 346.803101,233.645966 346.901031,235.637299   C347.170563,241.117569 346.594116,246.657837 347.110901,252.102371   C347.628326,257.553741 346.020782,261.520294 341.858856,265.037140   C336.172211,269.842407 330.857483,275.087860 325.011078,280.223633  z"/>
<path fill="url(#logoGradient)" opacity="1.000000" stroke="none" d=" M332.067871,191.338165   C335.954071,193.815582 340.148773,196.335739 343.766998,199.512512   C352.350891,207.049088 360.777252,214.777252 368.985626,222.719101   C370.643188,224.322861 371.869049,227.197266 371.910522,229.510681   C372.148468,242.782639 372.166901,256.066833 371.846497,269.336914   C371.691620,275.750092 370.634003,282.141510 370.052368,289.008301   C363.192352,295.785767 356.265106,302.097656 349.337860,308.409576   C348.905243,308.140900 348.472656,307.872223 348.040070,307.603577   C348.601166,306.011292 349.249023,304.443695 349.710419,302.823059   C356.483063,279.034851 360.784332,254.863144 359.173645,230.055664   C358.927155,226.258926 355.428131,222.474564 352.920074,219.061752   C346.132568,209.825714 339.068634,200.792831 332.067871,191.338165  z"/>
<path fill="url(#logoGradient)" opacity="1.000000" stroke="none" d=" M139.119354,291.821167   C132.973618,270.702667 135.581375,249.297562 135.072723,228.092163   C135.037659,226.630569 135.791656,224.696838 136.857117,223.731323   C149.028275,212.702103 161.327805,201.814468 173.612198,190.910568   C174.089523,190.486877 174.759033,190.279663 175.694305,190.002731   C167.635834,201.307465 159.155243,212.532394 150.874939,223.903168   C149.517166,225.767685 148.445724,228.222778 148.250107,230.491837   C146.487961,250.933044 149.310349,270.916016 154.586060,290.646484   C156.085419,296.253906 157.149048,301.977844 157.452789,308.114319   C151.403610,302.765686 145.354431,297.417023 139.119354,291.821167  z"/>
<path fill="url(#logoGradient)" opacity="1.000000" stroke="none" d=" M341.055481,105.230499   C339.597168,98.128021 345.537048,91.036919 352.788513,90.991997   C358.427124,90.957062 364.089142,90.673553 369.694519,91.103531   C372.254913,91.299934 375.262360,92.339951 377.112946,94.037491   C389.297882,105.214767 389.224762,105.307297 389.140533,121.932785   C389.122070,125.577530 388.987854,129.221695 388.496948,133.404160   C382.908203,138.775528 377.729431,143.608871 372.550690,148.442215   C370.116425,146.307480 367.682190,144.172745 364.797607,141.643097   C371.004333,137.249680 375.078156,132.282990 376.079742,125.235184   C377.666809,114.067070 370.451233,105.205811 359.260590,104.979637   C353.324951,104.859673 347.383820,105.010925 341.055481,105.230499  z"/>
<path fill="url(#logoGradient)" opacity="1.000000" stroke="none" d=" M109.576683,263.000244   C109.576584,280.818817 109.576584,298.137390 109.576584,315.452728   C103.482033,314.155548 97.619102,307.344666 97.621117,301.553741   C97.628883,279.236603 97.624413,256.919464 97.648300,234.602325   C97.657463,226.044342 100.156364,224.013397 109.576782,225.276382   C109.576782,237.634018 109.576782,250.067108 109.576683,263.000244  z"/>
<path fill="url(#logoGradient)" opacity="1.000000" stroke="none" d=" M119.320724,133.696106   C119.239525,125.372925 119.061218,117.048477 119.170120,108.727791   C119.188858,107.295746 120.124832,105.594543 121.151207,104.499580   C133.877640,90.922760 133.902176,90.945763 154.213943,90.969658   C161.957794,90.978767 167.725159,96.686996 167.746445,104.916504   C159.541977,105.347832 150.977386,103.617279 143.532272,105.765869   C129.018768,109.954308 128.891586,127.068642 136.351135,135.994781   C138.042297,138.018417 139.808594,139.979263 143.195114,142.831528   C140.814636,144.616623 138.434174,146.401718 135.552719,147.941055   C129.808075,143.028900 124.564392,138.362503 119.320724,133.696106  z"/>
<path fill="url(#logoGradient)" opacity="1.000000" stroke="none" d=" M397.524658,289.734100   C397.524658,268.418945 397.524658,247.103790 397.524658,225.813370   C406.693207,223.271027 409.819458,225.649536 409.820007,235.080719   C409.821228,256.397552 409.610260,277.717957 409.970551,299.028687   C410.059448,304.287537 408.639282,307.890747 404.426697,310.765228   C402.312134,312.208038 400.480621,314.065674 397.541443,316.570618   C397.541443,307.636261 397.541443,299.903931 397.672302,291.336609   C397.710327,290.245789 397.617493,289.989929 397.524658,289.734100  z"/>
<path fill="url(#logoGradient)" opacity="1.000000" stroke="none" d=" M140.003204,182.496719   C147.369659,175.134796 154.673950,168.159271 162.141922,161.363632   C171.471832,152.873688 180.934769,144.529877 190.346924,136.130402   C190.936569,135.604202 191.583725,135.142456 192.931030,134.074615   C192.931030,140.377747 193.936600,146.194016 192.580902,151.394760   C191.662445,154.918121 187.636124,157.804413 184.633942,160.579926   C174.544891,169.907211 164.337891,179.108765 154.079422,188.250031   C149.880753,191.991440 145.435257,195.455887 140.770889,199.067001   C140.297729,193.712769 140.155701,188.337875 140.003204,182.496719  z"/>
<path fill="url(#logoGradient)" opacity="1.000000" stroke="none" d=" M366.794556,198.625824   C364.709991,197.847565 362.567383,196.872513 360.912781,195.362671   C346.216736,181.952438 331.603821,168.451035 316.981659,154.959961   C316.274628,154.307617 315.182037,153.513733 315.163269,152.763367   C315.013397,146.779724 315.079651,140.790665 315.079651,133.886429   C332.795258,150.173126 349.817047,165.821991 366.941040,181.804947   C367.016388,187.486374 366.989624,192.833710 366.794556,198.625824  z"/>
<path fill="url(#logoGradient)" opacity="1.000000" stroke="none" d=" M252.022491,310.206879   C242.564072,312.108765 237.066620,307.995178 233.761078,300.012573   C233.513412,299.414459 232.985397,298.936584 232.619568,298.381775   C232.358353,297.985657 232.150528,297.554352 231.918945,297.138885   C246.348969,289.570404 260.774048,289.432983 275.703705,297.375977   C273.138977,301.062775 270.474487,305.124664 267.513428,308.957428   C266.909088,309.739685 265.201569,309.878418 263.983856,309.939331   C260.165710,310.130219 256.338684,310.142426 252.022491,310.206879  z"/>
<path fill="url(#logoGradient)" opacity="1.000000" stroke="none" d=" M372.688232,148.746979   C377.729431,143.608871 382.908203,138.775528 388.409302,133.850586   C389.003448,137.688492 389.275269,141.618011 389.860992,145.836121   C386.845093,149.194717 383.515289,152.264709 379.910461,155.588272   C377.361694,153.236694 375.093719,151.144226 372.688232,148.746979  z"/>
<path fill="url(#logoGradient)" opacity="1.000000" stroke="none" d=" M119.215630,134.173859   C124.564392,138.362503 129.808075,143.028900 135.226349,148.021530   C133.089203,150.662216 130.777435,152.976654 128.187180,155.569931   C124.656509,152.522141 121.341805,149.660782 117.878899,146.488068   C118.190636,142.335007 118.650589,138.493317 119.215630,134.173859  z"/>
<path fill="url(#logoGradient)" opacity="1.000000" stroke="none" d=" M397.319489,289.760559   C397.617493,289.989929 397.710327,290.245789 397.665466,290.886047   C397.389984,290.776001 397.252136,290.281525 397.319489,289.760559  z"/>
<path fill="url(#logoGradient)" opacity="1.000000" stroke="none" d=" M168.011047,119.053177   C167.898300,119.285606 167.787079,119.465347 167.675858,119.645088   C167.608627,119.400810 167.541382,119.156532 167.690765,118.953125   C167.907394,118.993988 168.012604,119.000496 168.011047,119.053177  z"/>
<path fill="url(#logoGradient)" opacity="1.000000" stroke="none" d=" M340.237335,118.952477   C340.508881,119.181351 340.612183,119.368233 340.715485,119.555115   C340.471375,119.588501 340.227264,119.621887 339.981628,119.450455   C339.980072,119.245636 340.069092,118.910484 340.237335,118.952477  z"/>
</svg>